<svg xmlns="http://www.w3.org/2000/svg" width="20.769" height="20.769" viewBox="0 0 20.769 20.769"><g transform="translate(-57 -1527)"><path d="M34.685,27.182A.692.692,0,0,0,35.7,26.24l-4.179-4.5,2.045-4.248a.692.692,0,0,0-1.247-.6l-2.25,4.673a.692.692,0,0,0,.116.771Z" transform="translate(36.692 1515.519)" fill="#b2b2b2"/><path d="M22.769,12.384A10.384,10.384,0,1,0,12.384,22.769,10.384,10.384,0,0,0,22.769,12.384Zm-10.384-9a9,9,0,1,1-9,9A9,9,0,0,1,12.384,3.385Z" transform="translate(55 1525)" fill="#b2b2b2" fill-rule="evenodd"/></g></svg>