<svg xmlns="http://www.w3.org/2000/svg" xmlns:xlink="http://www.w3.org/1999/xlink" width="16.333" height="10.831" viewBox="0 0 16.333 10.831"><defs><clipPath id="a"><rect width="16.333" height="10.831" fill="#fff"/></clipPath></defs><g clip-path="url(#a)"><path d="M14.913,10.831H1.421A1.423,1.423,0,0,1,0,9.411V1.421A1.423,1.423,0,0,1,1.421,0H14.913a1.422,1.422,0,0,1,1.421,1.42V9.41a1.422,1.422,0,0,1-1.421,1.422M1.421.627a.794.794,0,0,0-.793.793V9.41a.794.794,0,0,0,.793.793H14.913a.793.793,0,0,0,.793-.792V1.421a.794.794,0,0,0-.793-.793Z" fill="#fff"/><path d="M25.772,19.422a.314.314,0,0,1-.19-.064L18.114,13.7a.314.314,0,0,1,.379-.5l7.279,5.511,7.308-5.541a.314.314,0,0,1,.4.481l-.025.019-7.5,5.685a.314.314,0,0,1-.19.064" transform="translate(-17.636 -12.842)" fill="#fff"/><path d="M463.266,264.558a.314.314,0,0,1-.19-.064l-6.375-4.833a.314.314,0,0,1,.38-.5l6.375,4.833a.314.314,0,0,1-.19.564Z" transform="translate(-447.613 -254.01)" fill="#fff"/><path d="M17.367,264.5a.314.314,0,0,1-.19-.565l6.343-4.8a.314.314,0,0,1,.379.5l-6.343,4.8a.313.313,0,0,1-.189.064" transform="translate(-16.718 -253.981)" fill="#fff"/></g></svg>