<svg xmlns="http://www.w3.org/2000/svg" xmlns:xlink="http://www.w3.org/1999/xlink" width="24.393" height="26.396" viewBox="0 0 24.393 26.396"><defs><clipPath id="a"><rect width="24.393" height="26.396" fill="none"/></clipPath></defs><g clip-path="url(#a)"><path d="M10.475,0A10.475,10.475,0,1,0,20.95,10.475,10.465,10.465,0,0,0,10.475,0m0,17.782a7.294,7.294,0,1,1,7.28-7.307,7.3,7.3,0,0,1-7.28,7.307"/><path d="M59.818,67.636a1.9,1.9,0,0,1-1.361-.583l-6.279-6.807a1.832,1.832,0,0,1,.111-2.64,1.856,1.856,0,0,1,2.64.111l6.279,6.807a1.856,1.856,0,0,1-.111,2.64,2.125,2.125,0,0,1-1.278.472" transform="translate(-37.313 -41.241)"/></g></svg>